<svg width="897" height="631" viewBox="0 0 897 631" fill="none" xmlns="http://www.w3.org/2000/svg">
<g clip-path="url(#clip0_879_3138)">
<g clip-path="url(#clip1_879_3138)">
<g clip-path="url(#clip2_879_3138)">
<g clip-path="url(#clip3_879_3138)">
<mask id="mask0_879_3138" style="mask-type:luminance" maskUnits="userSpaceOnUse" x="0" y="-1" width="897" height="632">
<path d="M896.5 -0.012207H0V630.012H896.5V-0.012207Z" fill="white"/>
</mask>
<g mask="url(#mask0_879_3138)">
<path fill-rule="evenodd" clip-rule="evenodd" d="M571.182 176.859C511.778 124.549 442.191 111.053 423.794 108.298C436.181 76.9033 455.327 30.2223 460.095 23.3085C461.63 23.1122 464.763 22.8091 469.393 22.8091C482.906 22.8091 511.827 25.4514 553.668 43.1388C614.087 68.6823 630.261 97.4194 633.438 104.447L571.182 176.859Z" fill="white"/>
<path d="M93.0843 100.862C93.0843 74.817 72.2467 53.7031 46.5421 53.7031C20.8376 53.7031 0 74.817 0 100.862C0 126.907 20.8376 148.021 46.5421 148.021C72.2467 148.021 93.0843 126.907 93.0843 100.862Z" fill="#15B9FF"/>
<path fill-rule="evenodd" clip-rule="evenodd" d="M469.392 19.3643C462.04 19.3643 458.263 20.0928 458.263 20.0928C453.968 21.438 418.777 111.111 418.777 111.111C418.777 111.111 502.313 119.118 571.534 181.932L637.608 105.077C637.608 105.077 626.582 70.1876 555.171 39.997C513.324 22.3061 484.158 19.3643 469.392 19.3643ZM469.392 26.2539C482.614 26.2539 510.947 28.8565 552.164 46.2804C606.826 69.3884 624.489 95.2214 629.142 103.961L570.792 171.831C535.674 141.798 497.827 125.205 471.651 116.473C453.087 110.28 437.891 107.107 428.782 105.568C442.472 71.0074 457.369 35.4291 462.368 26.5346C463.992 26.3917 466.344 26.2539 469.392 26.2539Z" fill="#599FF4"/>
<path fill-rule="evenodd" clip-rule="evenodd" d="M430.947 118.932C430.947 118.932 431.259 118.962 431.868 119.029C441 120.02 516.041 129.471 563.173 170.156C563.548 170.477 564.127 170.455 564.471 170.103C564.811 169.752 564.787 169.208 564.414 168.887C513.463 124.986 431.207 117.244 431.131 117.22C430.628 117.17 430.177 117.515 430.128 117.989C430.076 118.463 430.443 118.884 430.947 118.932Z" fill="#DFDFDF"/>
<path fill-rule="evenodd" clip-rule="evenodd" d="M501.971 114.312L532.615 58.3354L564.11 116.712L501.971 114.312Z" fill="#599FF4"/>
<path fill-rule="evenodd" clip-rule="evenodd" d="M507.929 113.513L508.744 113.906L538.566 59.429L568.545 114.991L507.966 112.651L507.929 113.513L507.891 114.372L570.031 116.771C570.356 116.786 570.663 116.633 570.84 116.377C571.016 116.12 571.033 115.794 570.886 115.523L539.39 57.1468C539.234 56.8574 538.919 56.6748 538.575 56.6748C538.23 56.6732 537.915 56.8539 537.757 57.1415L507.115 113.119C506.97 113.38 506.979 113.692 507.137 113.946C507.294 114.2 507.579 114.361 507.891 114.372L507.929 113.513Z" fill="#1F2A37"/>
<path fill-rule="evenodd" clip-rule="evenodd" d="M479.081 16.8222C479.081 16.8222 479.427 16.8514 480.11 16.9238C490.344 17.99 574.438 28.6052 627.813 88.2319C628.136 88.5953 628.716 88.6418 629.103 88.3353C629.49 88.0286 629.54 87.4861 629.215 87.1227C600.441 55.0014 562.953 37.0105 532.672 27.0396C502.389 17.0667 479.297 15.1119 479.246 15.1066C478.742 15.0635 478.296 15.4133 478.252 15.8869C478.205 16.3605 478.577 16.7791 479.081 16.8222Z" fill="#DFDFDF"/>
<path fill-rule="evenodd" clip-rule="evenodd" d="M526.219 264.024C521.161 260.532 517.844 258.187 517.844 258.187C519.246 256.432 541.409 234.249 554.239 216.375C554.239 216.375 528.289 265.453 526.219 264.024Z" fill="#DFDFDF"/>
<path fill-rule="evenodd" clip-rule="evenodd" d="M211.393 102.783C212.061 103.821 212.662 104.556 213.41 105.061C214.158 105.569 215.032 105.754 215.915 105.747C217.589 105.735 219.543 105.244 222.946 105.003C223.265 104.979 223.591 104.969 223.924 104.969C227.225 104.963 231.189 106.113 234.696 108.221C238.21 110.325 241.261 113.368 242.869 117.092C244.553 120.968 245.148 123.264 245.138 124.532C245.134 125.234 244.985 125.585 244.791 125.849C244.595 126.112 244.282 126.332 243.815 126.584C243.726 126.637 243.326 126.78 242.799 126.914C240.917 127.405 237.275 128.034 234.046 128.817C232.427 129.212 230.905 129.644 229.7 130.15C229.097 130.406 228.57 130.676 228.132 131.003C227.704 131.33 227.319 131.735 227.188 132.315C227.087 132.782 227.41 133.235 227.907 133.329C228.402 133.423 228.885 133.119 228.985 132.653L229.053 132.553C229.164 132.415 229.478 132.18 229.943 131.953C231.579 131.131 234.864 130.356 237.874 129.735C239.384 129.422 240.836 129.136 242.025 128.873C242.618 128.741 243.149 128.615 243.594 128.49C244.045 128.362 244.399 128.248 244.724 128.081C245.261 127.788 245.844 127.433 246.287 126.843C246.735 126.256 246.977 125.478 246.972 124.532C246.962 122.809 246.277 120.41 244.568 116.445C242.782 112.319 239.457 109.031 235.682 106.768C231.903 104.507 227.667 103.25 223.924 103.246C223.547 103.246 223.172 103.258 222.806 103.285C219.293 103.542 217.171 104.035 215.915 104.024C215.244 104.018 214.884 103.925 214.472 103.657C214.059 103.385 213.571 102.848 212.967 101.897C212.706 101.489 212.143 101.356 211.708 101.601C211.273 101.845 211.133 102.374 211.393 102.783Z" fill="#DFDFDF"/>
<path fill-rule="evenodd" clip-rule="evenodd" d="M396.937 521.684L390.548 511.538L367.882 547.032L373.83 551.331L396.937 521.684Z" fill="#F9A183"/>
<path fill-rule="evenodd" clip-rule="evenodd" d="M246.425 433.665C246.425 433.665 234.679 415.724 239.717 406.936L277.188 410.7L246.425 433.665Z" fill="#F9A183"/>
<path fill-rule="evenodd" clip-rule="evenodd" d="M246.423 433.666L248.667 438.514L241.747 463.873C240.874 467.068 242.003 470.449 244.661 472.604L278.928 425.013C282.185 420.492 281.444 414.415 277.188 410.701L269.53 404.018L246.423 433.666Z" fill="#CED4DA"/>
<path fill-rule="evenodd" clip-rule="evenodd" d="M228.085 132.484C238.817 132.243 252.415 131.605 249.696 123.941C246.978 116.276 236.778 97.1121 213.66 102.861C213.66 102.861 205.501 109.25 215.699 120.747C225.901 132.243 228.085 132.484 228.085 132.484Z" fill="#CED4DA"/>
<path fill-rule="evenodd" clip-rule="evenodd" d="M282.401 411.124C282.401 411.124 264.083 360.317 279.583 338.008C292.375 319.598 334.169 349.544 339.896 353.579L369.8 302.842C369.8 302.842 362.897 293.749 345.947 284.847C329 275.944 258.983 249.282 226.078 298.056C213.918 316.08 213.733 393.429 237.055 423.073L282.401 411.124Z" fill="#662CC5"/>
<path fill-rule="evenodd" clip-rule="evenodd" d="M283.268 410.848C283.268 410.848 283.131 410.466 282.886 409.741C281.166 404.674 274.266 383.025 274.272 363.377C274.266 353.879 275.895 344.876 280.35 338.477C281.747 336.473 283.473 335.108 285.48 334.222C287.488 333.336 289.796 332.935 292.327 332.935C300.729 332.917 311.461 337.444 320.551 342.409C329.656 347.368 337.148 352.717 339.345 354.267C339.752 354.553 340.325 354.475 340.629 354.095C340.934 353.714 340.851 353.175 340.446 352.89C338.244 351.337 330.685 345.936 321.472 340.919C312.244 335.907 301.392 331.229 292.327 331.212C289.592 331.212 287.009 331.646 284.704 332.662C282.397 333.675 280.381 335.279 278.815 337.537C274.054 344.403 272.445 353.703 272.439 363.377C272.448 386.239 281.523 411.355 281.532 411.401C281.696 411.85 282.217 412.092 282.694 411.941C283.176 411.787 283.432 411.298 283.271 410.848" fill="#DFDFDF"/>
<path fill-rule="evenodd" clip-rule="evenodd" d="M369.8 302.842C356.201 316.291 315.879 381.813 306.81 413.126C294.683 455.014 299.241 489.754 365.905 557.776L398.127 513.684C398.127 513.684 375.473 481.364 379.702 450.898C385.819 406.82 419.208 364.085 436.101 336.977L369.8 302.842Z" fill="#662CC5"/>
<path fill-rule="evenodd" clip-rule="evenodd" d="M374.921 308.536L428.522 348.057L444.54 325.177L374.921 308.536Z" fill="#DFDFDF"/>
<path fill-rule="evenodd" clip-rule="evenodd" d="M682.786 266.982C691.144 268.665 697.514 271.657 701.892 275.957C706.269 280.256 704.279 282.499 702.688 283.808C701.094 285.117 694.926 283.622 689.553 279.133C684.18 274.649 682.786 266.982 682.786 266.982Z" fill="#FF8A66"/>
<path fill-rule="evenodd" clip-rule="evenodd" d="M517.844 258.187C519.246 256.432 541.409 234.249 554.239 216.375C554.239 216.375 593.024 257.2 597.231 258.518C598.794 259.008 608.304 258.891 620.109 258.776C640.067 258.581 666.593 258.394 672.464 261.152C681.811 265.542 687.416 267.736 689.755 273.885C692.09 280.029 693.011 284.042 687.416 284.42C680.874 284.86 676.669 276.957 676.669 276.957C676.669 276.957 671.325 279.989 657.512 284.86C657.512 284.86 607.809 302.984 574.59 294.217C565.518 291.824 517.844 258.187 517.844 258.187Z" fill="#F9A183"/>
<path fill-rule="evenodd" clip-rule="evenodd" d="M216.569 95.1262C212.305 96.6525 209.712 98.475 212.179 102.34C214.65 106.205 215.745 104.658 222.875 104.143C230.008 103.628 240.154 108.523 243.717 116.769C247.284 125.012 246.188 126.3 244.268 127.332C242.347 128.362 228.636 129.907 228.087 132.484C227.538 135.06 233.643 142.665 246.258 142.15L249.276 141.635C249.276 141.635 275.805 165.977 279.646 169.585C283.485 173.193 311.701 191.15 327.245 194.801C339.06 197.576 362.996 193.998 377.38 191.361C384.364 190.081 389.096 189.021 389.096 189.021C389.096 189.021 378.304 170.755 376.107 142.674C376.107 142.674 350.286 146.57 333.127 150.107C333.127 150.107 293.083 129.133 273.612 119.861C273.612 119.861 256.608 100.279 248.655 97.7012C240.702 95.1262 222.327 93.0645 216.569 95.1262Z" fill="#F9A183"/>
<path fill-rule="evenodd" clip-rule="evenodd" d="M377.38 191.362C384.364 190.082 389.096 189.023 389.096 189.023C389.096 189.023 376.041 173.559 373.847 145.478C373.847 145.478 367.944 151.453 369.778 167.359C372.086 187.349 377.38 191.362 377.38 191.362Z" fill="#DFDFDF"/>
<path fill-rule="evenodd" clip-rule="evenodd" d="M373.215 142.335C373.215 142.335 373.576 176.652 383.363 190.969L386.872 189.65C386.872 189.65 340.753 240.337 325.836 273.458C323.396 278.877 421.594 337.805 436.101 336.979C436.101 336.979 483.944 268.378 500.307 248.043L517.894 260.845C517.894 260.845 552.388 228.029 554.24 216.375C554.24 216.375 520.924 178.288 493.665 167.135C466.409 155.985 442.052 136.882 412.772 137.4C387.427 137.848 373.215 142.335 373.215 142.335Z" fill="#FECB03"/>
<path fill-rule="evenodd" clip-rule="evenodd" d="M517.895 260.845L500.307 248.042L503.111 240.871L517.895 260.845Z" fill="#DFDFDF"/>
<path fill-rule="evenodd" clip-rule="evenodd" d="M544.645 125.147C541.565 134.143 532.675 160.17 522.755 163.383C512.835 166.595 502.509 162.562 502.509 162.562L491.944 167.641C490.764 170.963 482.425 173.824 471.656 174.213C463.685 174.501 458.83 164.884 461.191 157.922C462.273 154.724 466.32 138.963 466.32 138.963C466.32 138.963 474.871 109.401 482.737 103.297C490.603 97.1923 497.998 91.1465 518.994 99.1195C551.143 111.33 544.645 125.147 544.645 125.147Z" fill="#F9A183"/>
<path fill-rule="evenodd" clip-rule="evenodd" d="M480.907 126.426C479.496 131.953 473.381 143.002 469.383 141.012C465.383 139.023 463.972 133.94 466.794 124.217C469.617 114.494 471.968 92.3953 479.968 88.4165C487.965 84.4393 491.493 89.0813 491.493 89.0813C491.493 89.0813 487.965 72.9474 498.315 70.7392C498.315 70.7392 501.843 69.1908 500.433 80.2401C500.433 80.2401 504.429 70.0745 517.367 71.4008C530.306 72.727 534.775 89.7427 534.775 89.7427C534.775 89.7427 535.717 85.1026 541.596 85.1026C547.479 85.1026 556.415 93.2788 554.301 102.339C554.301 102.339 569.349 97.9135 577.352 109.19C585.35 120.46 584.409 132.835 565.12 137.698C544.951 142.781 545.125 120.681 542.069 117.808C539.01 114.937 535.717 111.621 524.425 115.6C513.134 119.577 501.373 107.864 501.373 107.864C501.373 107.864 499.49 122.007 497.61 123.333C495.727 124.659 491.964 126.426 492.902 119.798C493.845 113.167 495.022 113.831 494.316 112.063C493.611 110.295 490.427 104.717 483.729 109.632C476.204 115.157 480.907 126.426 480.907 126.426Z" fill="#2A1E33"/>
<path fill-rule="evenodd" clip-rule="evenodd" d="M484.701 128.241C481.811 125.966 479.559 122.517 479.568 118.805C479.569 117.042 480.059 115.203 481.248 113.322C483.746 109.366 487.269 107.803 489.663 107.812C490.853 107.812 491.703 108.182 492.123 108.694C493.17 109.945 493.869 111.767 493.869 114.011C493.869 115.485 493.568 117.139 492.866 118.923C492.691 119.369 492.934 119.865 493.409 120.031C493.886 120.194 494.411 119.967 494.587 119.521C495.355 117.563 495.701 115.706 495.701 114.011C495.701 111.434 494.9 109.228 493.565 107.629C492.677 106.579 491.238 106.087 489.663 106.089C486.467 106.098 482.458 108.052 479.673 112.442C478.323 114.569 477.732 116.738 477.734 118.805C477.744 123.184 480.317 127.031 483.521 129.561C483.908 129.868 484.487 129.819 484.812 129.455C485.138 129.09 485.086 128.548 484.701 128.241Z" fill="#2A1E33"/>
<path fill-rule="evenodd" clip-rule="evenodd" d="M373.83 551.329L376.076 556.176L369.153 581.537C368.283 584.729 369.41 588.111 372.065 590.265L406.335 542.675C409.589 538.154 408.853 532.078 404.593 528.365L396.937 521.684L373.83 551.329Z" fill="#CED4DA"/>
<path fill-rule="evenodd" clip-rule="evenodd" d="M492.369 88.8283C492.35 88.7749 491.67 86.6994 489.956 84.3242C488.246 81.9541 485.468 79.2551 481.255 78.1217C480.769 77.9925 480.26 78.2561 480.122 78.7141C479.984 79.1707 480.264 79.6477 480.753 79.7787C484.406 80.757 486.873 83.1236 488.438 85.2905C489.221 86.3722 489.769 87.3952 490.121 88.1428C490.297 88.5165 490.422 88.8197 490.503 89.0282L490.592 89.2641L490.616 89.3331C490.764 89.7877 491.277 90.0444 491.762 89.9049C492.246 89.7636 492.517 89.283 492.369 88.8283Z" fill="#2A1E33"/>
<path fill-rule="evenodd" clip-rule="evenodd" d="M325.508 271.537L420.443 146.951C420.739 146.562 420.644 146.026 420.234 145.749C419.821 145.471 419.249 145.56 418.953 145.947L324.017 270.535C323.721 270.923 323.817 271.46 324.228 271.738C324.64 272.013 325.213 271.925 325.508 271.537Z" fill="#DFDFDF"/>
<path fill-rule="evenodd" clip-rule="evenodd" d="M458.105 154.64C457.36 155.558 456.78 156.863 456.35 158.438C455.922 160.01 455.665 161.847 455.665 163.779C455.666 167.13 456.437 170.784 458.581 173.763C460.715 176.744 464.286 178.974 469.517 179.348C470.838 179.445 472.122 179.491 473.363 179.491C487.186 179.487 495.814 173.929 495.906 173.872C496.323 173.604 496.428 173.066 496.142 172.675C495.856 172.282 495.284 172.182 494.868 172.452L494.787 172.503C493.899 173.049 485.818 177.772 473.363 177.769C472.17 177.769 470.934 177.725 469.661 177.631C464.904 177.265 461.971 175.369 460.099 172.796C458.232 170.217 457.493 166.884 457.497 163.779C457.497 161.993 457.739 160.286 458.127 158.863C458.506 157.442 459.052 156.3 459.557 155.69C459.866 155.313 459.79 154.773 459.39 154.483C458.988 154.193 458.411 154.264 458.105 154.64Z" fill="#DFDFDF"/>
<path fill-rule="evenodd" clip-rule="evenodd" d="M247.923 98.2207C247.926 98.2226 248.596 99.0582 249.637 100.393C251.199 102.396 253.579 105.517 255.722 108.573C257.864 111.616 259.778 114.657 260.343 116.273C260.502 116.725 261.021 116.97 261.502 116.818C261.981 116.668 262.243 116.18 262.082 115.729C261.605 114.395 260.586 112.638 259.313 110.667C255.501 104.786 249.393 97.1948 249.387 97.1824C249.08 96.8036 248.506 96.7275 248.102 97.014C247.698 97.3014 247.617 97.84 247.923 98.2207Z" fill="#DFDFDF"/>
<path fill-rule="evenodd" clip-rule="evenodd" d="M654.398 279.269C654.507 279.358 657.394 281.535 662.986 281.534C666.599 281.535 671.321 280.623 677.103 277.716C679.052 276.754 680.073 275.18 680.061 273.602C680.058 272.257 679.363 270.981 678.22 270.057C677.076 269.133 675.469 268.547 673.6 268.547C672.878 268.547 672.117 268.635 671.328 268.82C669.766 269.187 668.103 269.329 666.492 269.329C664.072 269.329 661.765 269.009 660.074 268.688C659.227 268.529 658.536 268.368 658.058 268.249C657.819 268.191 657.634 268.14 657.51 268.106L657.329 268.054C656.846 267.911 656.33 268.162 656.179 268.617C656.026 269.07 656.293 269.554 656.776 269.697C656.826 269.71 661.314 271.049 666.492 271.051C668.216 271.051 670.023 270.901 671.774 270.491C672.424 270.338 673.035 270.269 673.6 270.269C675.065 270.271 676.231 270.722 677.024 271.363C677.82 272.007 678.228 272.828 678.227 273.602C678.215 274.498 677.729 275.429 676.238 276.197C670.677 278.992 666.271 279.809 662.986 279.812C660.447 279.812 658.569 279.321 657.333 278.843C656.716 278.604 656.259 278.366 655.964 278.195L655.641 277.996L655.571 277.946L655.561 277.937L655.391 278.135L655.562 277.94L655.561 277.937L655.391 278.135L655.562 277.94C655.172 277.637 654.595 277.691 654.274 278.057C653.951 278.425 654.008 278.967 654.398 279.269Z" fill="#DFDFDF"/>
<path fill-rule="evenodd" clip-rule="evenodd" d="M684.577 268.32C684.577 268.32 684.675 268.427 684.855 268.635C685.487 269.357 687.086 271.249 688.508 273.422C689.94 275.585 691.148 278.078 691.126 279.728L691.123 279.881C691.105 280.357 691.501 280.756 692.007 280.774C692.512 280.791 692.937 280.421 692.954 279.945L692.96 279.728C692.954 278.392 692.484 276.988 691.821 275.589C689.828 271.415 685.993 267.234 685.969 267.2C685.64 266.84 685.059 266.798 684.677 267.106C684.292 267.417 684.248 267.961 684.577 268.32Z" fill="#DFDFDF"/>
<path fill-rule="evenodd" clip-rule="evenodd" d="M583.636 267.447L583.698 267.372C584.03 266.972 585.673 265.062 588.123 263.216C590.572 261.364 593.815 259.604 597.296 259.377C597.804 259.344 598.182 258.93 598.145 258.457C598.11 257.984 597.671 257.625 597.167 257.66C592.841 257.957 589.121 260.174 586.463 262.267C583.805 264.369 582.196 266.381 582.169 266.413C581.866 266.794 581.946 267.334 582.353 267.619C582.757 267.903 583.332 267.827 583.636 267.447Z" fill="#DFDFDF"/>
<path fill-rule="evenodd" clip-rule="evenodd" d="M318.562 163.092L318.597 162.993C318.796 162.461 319.854 159.858 322.17 157.202C324.493 154.541 328.031 151.841 333.288 150.955C333.786 150.872 334.118 150.423 334.029 149.956C333.939 149.487 333.464 149.176 332.965 149.26C326.805 150.291 322.745 153.639 320.267 156.686C317.786 159.736 316.839 162.503 316.817 162.563C316.661 163.017 316.927 163.503 317.409 163.647C317.891 163.792 318.408 163.545 318.562 163.092Z" fill="#DFDFDF"/>
<path fill-rule="evenodd" clip-rule="evenodd" d="M348.759 325.498L334.722 350.724L335.535 351.121L334.746 350.683C334.731 350.706 326.257 364.18 317.775 383.342C309.298 402.508 300.799 427.352 300.793 450.202C300.793 457.957 301.774 465.484 304.085 472.48C304.236 472.935 304.748 473.188 305.234 473.047C305.717 472.908 305.987 472.424 305.836 471.971C303.592 465.178 302.626 457.82 302.626 450.202C302.62 427.749 311.034 403.051 319.468 384.004C323.685 374.479 327.901 366.36 331.064 360.629C332.644 357.763 333.961 355.492 334.882 353.941C335.342 353.164 335.705 352.567 335.95 352.165C336.195 351.763 336.325 351.56 336.325 351.56L350.383 326.296C350.617 325.875 350.443 325.355 349.995 325.136C349.547 324.915 348.992 325.076 348.759 325.498Z" fill="#DFDFDF"/>
<path fill-rule="evenodd" clip-rule="evenodd" d="M391.359 410.74L436.893 337.412L436.101 336.977L436.856 337.467C436.856 337.467 451.777 317.135 467.461 295.369C475.305 284.485 483.34 273.243 489.796 264.001C493.025 259.38 495.86 255.258 498.082 251.929C500.306 248.595 501.909 246.07 502.705 244.575L501.887 244.191L502.693 244.602L523.752 207.997C523.992 207.58 523.827 207.055 523.382 206.831C522.935 206.604 522.38 206.759 522.139 207.178L501.08 243.781L501.066 243.806C500.335 245.179 498.738 247.705 496.529 251.013C488.788 262.614 473.486 283.995 460.128 302.458C453.446 311.693 447.253 320.201 442.727 326.4C440.464 329.501 438.618 332.022 437.339 333.77C436.06 335.517 435.347 336.486 435.346 336.49L435.309 336.543L389.776 409.873C389.522 410.282 389.667 410.81 390.106 411.05C390.542 411.29 391.105 411.151 391.359 410.74Z" fill="#DFDFDF"/>
<path fill-rule="evenodd" clip-rule="evenodd" d="M330.579 279.541C330.587 279.547 350.839 293.42 374.106 307.633C385.743 314.74 398.129 321.932 409.132 327.526C420.151 333.116 429.715 337.121 435.994 337.834C436.496 337.889 436.953 337.551 437.012 337.079C437.072 336.607 436.713 336.179 436.211 336.124C430.483 335.501 420.919 331.572 410.006 326.012C393.605 317.675 374.005 305.703 358.521 295.824C350.776 290.882 344.06 286.463 339.28 283.28C336.891 281.688 334.984 280.404 333.676 279.522C332.367 278.636 331.661 278.152 331.658 278.151C331.251 277.871 330.676 277.956 330.377 278.339C330.08 278.724 330.169 279.263 330.579 279.541Z" fill="#DFDFDF"/>
<path fill-rule="evenodd" clip-rule="evenodd" d="M372.298 142.321V142.356C372.298 142.867 372.317 151.64 373.57 162.074C374.838 172.515 377.282 184.591 382.364 191.881C382.641 192.279 383.209 192.39 383.633 192.129C384.056 191.866 384.173 191.333 383.894 190.936C379.134 184.163 376.62 172.203 375.391 161.881C374.151 151.549 374.132 142.828 374.132 142.356V142.347C374.138 141.872 373.734 141.48 373.229 141.474C372.721 141.467 372.306 141.846 372.298 142.321Z" fill="#DFDFDF"/>
<path fill-rule="evenodd" clip-rule="evenodd" d="M550.736 210.719C550.157 214.058 547.628 218.587 544.132 223.373C538.891 230.569 531.514 238.417 525.457 244.452C522.426 247.469 519.725 250.035 517.784 251.844C516.812 252.751 516.032 253.466 515.492 253.956C514.955 254.446 514.661 254.706 514.661 254.706C514.294 255.033 514.278 255.578 514.627 255.923C514.977 256.269 515.556 256.284 515.922 255.955C515.936 255.946 524.4 248.401 533.2 239.045C537.601 234.365 542.084 229.234 545.645 224.346C549.2 219.451 551.855 214.833 552.545 211.001C552.628 210.531 552.29 210.087 551.792 210.01C551.292 209.931 550.82 210.248 550.736 210.719Z" fill="#DFDFDF"/>
<path fill-rule="evenodd" clip-rule="evenodd" d="M304.243 385.003C304.243 387.497 302.09 389.519 299.436 389.519C296.779 389.519 294.628 387.497 294.628 385.003C294.628 382.509 296.779 380.485 299.436 380.485C302.09 380.485 304.243 382.509 304.243 385.003Z" fill="#DFDFDF"/>
<path fill-rule="evenodd" clip-rule="evenodd" d="M750.534 482.065L751.441 481.94L749.076 466.57L761.254 474.176L755.159 475.426C754.947 475.469 754.764 475.576 754.631 475.737L749.812 481.535L750.534 482.065L751.257 482.594L755.872 477.041L763.758 475.426C764.118 475.353 764.397 475.084 764.464 474.744C764.533 474.404 764.376 474.059 764.07 473.869L748.385 464.069C748.083 463.881 747.692 463.876 747.385 464.059C747.081 464.24 746.918 464.573 746.97 464.911L749.626 482.188C749.68 482.53 749.944 482.807 750.297 482.897C750.654 482.987 751.029 482.868 751.257 482.594L750.534 482.065Z" fill="#DFDFDF"/>
<path fill-rule="evenodd" clip-rule="evenodd" d="M230.922 186.479C226.698 182.98 222.031 181.108 217.57 181.108C212.792 181.097 208.31 183.301 205.143 187.691C201.967 192.079 200.031 198.609 200.031 207.412C200.037 224.336 207.18 249.725 227.043 284.785C246.91 319.843 279.513 364.557 330.515 420.048C364.963 457.531 396.975 483.708 424.818 500.533C452.664 517.353 476.332 524.84 494.178 524.847C503.222 524.847 510.787 522.912 516.586 519.241C522.384 515.574 526.374 510.163 528.276 503.385C530.76 494.555 531.821 486.529 531.821 479.3C531.824 462.501 526.081 450.015 519.21 441.739C515.772 437.599 512.056 434.508 508.618 432.44C505.171 430.374 502.032 429.308 499.579 429.298C498.424 429.298 497.381 429.544 496.583 430.154C495.781 430.763 495.351 431.732 495.362 432.795C495.368 434.051 495.872 435.493 496.886 437.197C497.902 438.9 499.446 440.865 501.612 443.112C512.648 454.549 529.316 463.377 549.382 469.37C569.451 475.359 592.93 478.503 617.628 478.506C656.036 478.503 697.395 470.895 733.414 454.461C751.273 446.311 762.873 437.137 770.009 427.704C777.146 418.276 779.788 408.594 779.788 399.547C779.788 387.981 775.502 377.454 770.878 369.574C768.566 365.634 766.164 362.354 764.157 359.931C763.153 358.72 762.247 357.723 761.493 356.96C760.733 356.195 760.154 355.678 759.696 355.368C759.283 355.094 758.711 355.186 758.418 355.573C758.125 355.961 758.222 356.498 758.636 356.774C758.882 356.934 759.447 357.418 760.148 358.132C762.64 360.651 767.12 366.132 770.946 373.412C774.776 380.696 777.956 389.78 777.956 399.547C777.954 408.283 775.426 417.566 768.516 426.707C761.601 435.846 750.27 444.851 732.612 452.91C696.892 469.215 655.781 476.785 617.628 476.783C593.097 476.783 569.788 473.653 549.937 467.728C530.084 461.805 513.697 453.08 502.972 441.956C500.869 439.779 499.407 437.901 498.484 436.354C497.558 434.809 497.19 433.593 497.196 432.795C497.208 432.105 497.41 431.755 497.748 431.485C498.088 431.217 498.694 431.018 499.579 431.021C501.451 431.011 504.39 431.932 507.63 433.89C517.385 439.761 529.99 454.667 529.988 479.3C529.988 486.37 528.95 494.247 526.503 502.947C524.691 509.372 520.984 514.373 515.561 517.813C510.134 521.251 502.95 523.125 494.178 523.125C476.875 523.132 453.46 515.799 425.81 499.086C398.156 482.377 366.258 456.305 331.902 418.924C280.968 363.505 248.441 318.881 228.662 283.975C208.879 249.076 201.859 223.884 201.865 207.412C201.862 198.842 203.764 192.65 206.659 188.661C209.565 184.673 213.392 182.841 217.57 182.831C221.475 182.829 225.739 184.481 229.709 187.772C230.088 188.087 230.667 188.052 231.003 187.696C231.337 187.34 231.302 186.795 230.922 186.479Z" fill="#DFDFDF"/>
<path fill-rule="evenodd" clip-rule="evenodd" d="M739.117 453.335C739.117 455.828 736.966 457.853 734.309 457.853C731.654 457.853 729.501 455.828 729.501 453.335C729.501 450.84 731.654 448.817 734.309 448.817C736.966 448.817 739.117 450.84 739.117 453.335Z" fill="#DFDFDF"/>
<path fill-rule="evenodd" clip-rule="evenodd" d="M664.798 490.952L807.312 415.486C807.753 415.253 807.91 414.728 807.661 414.312C807.412 413.899 806.854 413.754 806.411 413.985L663.897 489.452C663.454 489.685 663.299 490.21 663.548 490.624C663.796 491.038 664.355 491.186 664.798 490.952Z" fill="#DFDFDF"/>
<path fill-rule="evenodd" clip-rule="evenodd" d="M238.09 190.777C238.09 193.272 235.935 195.295 233.28 195.295C230.626 195.295 228.473 193.272 228.473 190.777C228.473 188.284 230.626 186.26 233.28 186.26C235.935 186.26 238.09 188.284 238.09 190.777Z" fill="#DFDFDF"/>
<path fill-rule="evenodd" clip-rule="evenodd" d="M366.191 97.5225C366.191 102.876 361.575 107.213 355.875 107.213C350.18 107.213 345.562 102.876 345.562 97.5225C345.562 92.1709 350.18 87.832 355.875 87.832C361.575 87.832 366.191 92.1709 366.191 97.5225Z" fill="#FB847F"/>
<path fill-rule="evenodd" clip-rule="evenodd" d="M168.701 23.6123C166.196 23.6123 164.166 25.5191 164.166 27.8719C164.166 30.2247 166.196 32.1314 168.701 32.1314C171.205 32.1314 173.237 30.2247 173.237 27.8719C173.237 25.5191 171.205 23.6123 168.701 23.6123Z" fill="#599FF4"/>
<path fill-rule="evenodd" clip-rule="evenodd" d="M780.827 548.443C780.827 550.796 778.798 552.703 776.294 552.703C773.791 552.703 771.759 550.796 771.759 548.443C771.759 546.09 773.791 544.181 776.294 544.181C778.798 544.181 780.827 546.09 780.827 548.443Z" fill="#FE7C48"/>
<path fill-rule="evenodd" clip-rule="evenodd" d="M695.272 356.055L646.527 334.562C642.594 332.827 642.662 327.552 646.638 325.906L737.328 288.418C738.612 287.888 740.074 287.881 741.362 288.401L803.655 313.521L695.272 356.055Z" fill="#9CA3AF"/>
<path fill-rule="evenodd" clip-rule="evenodd" d="M692.253 285.422C692.377 304.372 695.272 356.054 695.272 356.054L803.655 313.52L801.224 241.605C801.076 237.191 796.191 234.343 791.916 236.174L698.597 276.124C694.718 277.784 692.226 281.418 692.253 285.422Z" fill="#CED4DA"/>
<path fill-rule="evenodd" clip-rule="evenodd" d="M695.626 356.849L804.007 314.316C804.358 314.178 804.583 313.85 804.57 313.493L802.14 241.577L802.137 241.531C802.128 241.465 801.992 239.899 801.042 238.247C800.566 237.422 799.874 236.569 798.869 235.922C797.866 235.271 796.553 234.846 794.952 234.849C793.965 234.849 792.871 235.007 791.651 235.349C791.168 235.484 790.893 235.965 791.038 236.422C791.184 236.877 791.694 237.135 792.181 236.999C793.254 236.696 794.172 236.572 794.952 236.572C796.219 236.575 797.121 236.887 797.831 237.342C798.89 238.02 799.532 239.095 799.889 240.032C800.066 240.497 800.176 240.923 800.236 241.225L800.299 241.573L800.309 241.662L800.312 241.679L801.225 241.605L800.309 241.631L802.718 312.955L694.921 355.259C694.453 355.443 694.231 355.948 694.427 356.385C694.622 356.824 695.159 357.031 695.626 356.849Z" fill="#DFDFDF"/>
<path fill-rule="evenodd" clip-rule="evenodd" d="M748.576 304.7L755.892 288.45C756.089 288.013 755.872 287.506 755.406 287.322C754.939 287.136 754.401 287.341 754.204 287.778L746.887 304.028C746.689 304.465 746.907 304.972 747.374 305.156C747.84 305.342 748.377 305.137 748.576 304.7Z" fill="#1F2A37"/>
<path fill-rule="evenodd" clip-rule="evenodd" d="M755.892 304.7L763.209 288.45C763.407 288.013 763.189 287.506 762.722 287.322C762.258 287.136 761.718 287.341 761.522 287.778L754.203 304.028C754.007 304.465 754.225 304.972 754.691 305.156C755.156 305.342 755.696 305.137 755.892 304.7Z" fill="#111928"/>
<path fill-rule="evenodd" clip-rule="evenodd" d="M192.785 477.347C192.785 479.701 190.755 481.609 188.249 481.609C185.745 481.609 183.717 479.701 183.717 477.347C183.717 474.997 185.745 473.088 188.249 473.088C190.755 473.088 192.785 474.997 192.785 477.347Z" fill="#FB847F"/>
<path fill-rule="evenodd" clip-rule="evenodd" d="M576.874 498.452C576.874 501.721 574.052 504.37 570.574 504.37C567.092 504.37 564.273 501.721 564.273 498.452C564.273 495.183 567.092 492.534 570.574 492.534C574.052 492.534 576.874 495.183 576.874 498.452Z" fill="#FB847F"/>
<path fill-rule="evenodd" clip-rule="evenodd" d="M235.243 540.51C242.622 543.834 264.089 552.22 292.5 552.045C294.053 552.035 295.258 553.328 295.062 554.776L291.105 584.274C290.966 585.326 290.123 586.164 289.013 586.361C280.988 587.774 248.642 591.946 224.445 572.668C223.689 572.067 223.384 571.098 223.641 570.201L231.637 542.079C232.055 540.61 233.784 539.855 235.243 540.51Z" fill="#FFF7DC"/>
<path fill-rule="evenodd" clip-rule="evenodd" d="M237.34 549.68C237.344 549.686 240.844 554.305 244.977 559.265C247.044 561.747 249.267 564.313 251.302 566.438C253.35 568.568 255.147 570.239 256.599 571.023C257.21 571.342 257.903 571.443 258.657 571.445C260.8 571.435 263.662 570.601 266.91 569.393C276.6 565.767 289.39 558.597 289.411 558.587C289.845 558.344 289.989 557.815 289.731 557.407C289.47 556.999 288.907 556.865 288.472 557.108C288.472 557.11 288.122 557.304 287.49 557.65C285.272 558.864 279.612 561.905 273.703 564.631C270.749 565.995 267.734 567.281 265.07 568.216C262.415 569.155 260.079 569.731 258.657 569.723C258.089 569.726 257.693 569.63 257.501 569.523C256.462 568.985 254.638 567.36 252.664 565.288C249.682 562.17 246.214 558.01 243.504 554.637C242.148 552.952 240.98 551.461 240.15 550.395C239.321 549.325 238.833 548.682 238.833 548.682C238.54 548.294 237.968 548.203 237.555 548.479C237.142 548.754 237.045 549.293 237.34 549.68Z" fill="#1F2A37"/>
<path fill-rule="evenodd" clip-rule="evenodd" d="M269.569 568.302L284.255 582.484C284.608 582.824 285.189 582.832 285.552 582.5C285.915 582.169 285.921 581.623 285.568 581.282L270.885 567.101C270.531 566.76 269.951 566.753 269.587 567.084C269.225 567.417 269.215 567.96 269.569 568.302Z" fill="#1F2A37"/>
<path fill-rule="evenodd" clip-rule="evenodd" d="M249.586 564.138L232.41 568.524C231.922 568.648 231.632 569.121 231.767 569.581C231.899 570.039 232.403 570.309 232.891 570.185L250.065 565.8C250.555 565.675 250.843 565.202 250.712 564.743C250.577 564.284 250.075 564.014 249.586 564.138Z" fill="#1F2A37"/>
<path fill-rule="evenodd" clip-rule="evenodd" d="M668.475 206.965H684.88V191.552H668.475V206.965Z" fill="#F3BB75"/>
<path fill-rule="evenodd" clip-rule="evenodd" d="M670.699 399.446L680.45 415.315H660.947L670.699 399.446Z" fill="#599FF4"/>
<path fill-rule="evenodd" clip-rule="evenodd" d="M276.409 47.9395L277.325 47.9672L278.596 11.9463V11.8859L278.588 11.5001C278.593 10.0998 278.912 9.32815 279.345 8.84759C279.78 8.36705 280.442 8.06906 281.406 7.86754C287.702 6.5585 301.711 3.63039 319.389 3.62867C330.909 3.62867 343.978 4.87398 357.464 8.62024C359.262 9.12146 360.105 9.74157 360.534 10.3237C360.962 10.9076 361.063 11.5725 361.065 12.3889C361.065 12.6506 361.054 12.9246 361.045 13.207V13.2053L359.813 47.5469C359.779 48.4133 359.341 49.1711 358.592 49.7516C357.844 50.3286 356.79 50.6954 355.619 50.6937C355.363 50.6937 355.101 50.6765 354.837 50.6403C345.695 49.3847 333.667 48.9162 321.192 48.9144C319.826 48.9144 318.453 48.9214 317.08 48.9317C302.689 49.047 289.867 50.0477 280.832 51.6807C280.515 51.7392 280.232 51.7633 279.976 51.7633C278.965 51.7461 278.439 51.4257 277.996 50.8418C277.565 50.2528 277.316 49.3141 277.319 48.2359L277.325 47.9705V47.9672L276.409 47.9395L275.494 47.9086L275.486 48.2359C275.49 49.5414 275.758 50.7988 276.478 51.8064C277.186 52.8227 278.447 53.5031 279.976 53.4861C280.36 53.4861 280.759 53.4479 281.178 53.372C290.04 51.7686 302.79 50.7661 317.096 50.6541C318.463 50.6438 319.829 50.6368 321.192 50.6368C333.613 50.6368 345.588 51.1089 354.572 52.3456C354.925 52.3938 355.275 52.4161 355.619 52.4161C357.193 52.4161 358.652 51.9304 359.754 51.0847C360.853 50.2442 361.597 49.0109 361.645 47.6054L362.876 13.2638V13.2621C362.886 12.9866 362.898 12.6955 362.898 12.3889C362.901 11.4588 362.787 10.3582 362.042 9.34536C361.299 8.33431 360.014 7.52994 357.984 6.96844C344.292 3.16534 331.047 1.90625 319.389 1.90625C301.505 1.90625 287.327 4.87226 281.011 6.18473C279.865 6.42243 278.757 6.84442 277.95 7.73147C277.144 8.62024 276.751 9.86558 276.755 11.5001L276.764 11.9513L277.681 11.9187L276.764 11.8894L275.494 47.9103V47.9086L276.409 47.9395Z" fill="#DFDFDF"/>
<path fill-rule="evenodd" clip-rule="evenodd" d="M287.999 42.6723L288.696 43.232L308.096 21.8931L329.585 41.8145L330.228 41.2013L330.512 40.3815C328.49 39.7735 325.195 39.5858 321.178 39.5788C308.147 39.5806 287.909 41.8163 287.891 41.818L287.999 42.6723L288.105 43.5283C288.109 43.5283 289.365 43.3888 291.459 43.1804C297.744 42.5535 311.55 41.3012 321.178 41.3012C325.103 41.2961 328.373 41.5286 329.944 42.0195C330.349 42.1435 330.788 41.9902 331.011 41.6492C331.233 41.3065 331.174 40.8689 330.871 40.5881L308.683 20.0175C308.502 19.8486 308.257 19.7591 308.001 19.7694C307.746 19.7797 307.509 19.8883 307.342 20.0708L287.3 42.1125C287.056 42.3829 287.012 42.767 287.19 43.0787C287.365 43.3905 287.731 43.5696 288.105 43.5283L287.999 42.6723Z" fill="#DFDFDF"/>
<path fill-rule="evenodd" clip-rule="evenodd" d="M320.899 31.5073L336.56 19.7311L349.284 28.2605L349.748 41.2165L330.273 40.3398C329.765 40.3175 329.337 40.6843 329.311 41.1597C329.288 41.6352 329.678 42.0381 330.184 42.0605L350.654 42.9803C350.909 42.9924 351.16 42.9028 351.342 42.734C351.523 42.5652 351.623 42.331 351.614 42.0916L351.1 27.7764C351.09 27.5095 350.947 27.2616 350.717 27.1047L337.063 17.9501C336.729 17.7262 336.277 17.7383 335.958 17.9794L319.753 30.1621C319.358 30.4583 319.294 31.0008 319.611 31.3729C319.928 31.7433 320.503 31.8036 320.899 31.5073Z" fill="#DFDFDF"/>
<path fill-rule="evenodd" clip-rule="evenodd" d="M296.72 18.4308L295.812 18.529L295.824 18.7426C295.822 19.2818 295.575 19.7795 295.107 20.1859C294.64 20.5873 293.952 20.8766 293.132 20.9179L292.927 20.9232C292.099 20.9249 291.329 20.6631 290.765 20.2531C290.199 19.8432 289.856 19.3093 289.788 18.7391L289.776 18.5272C289.776 17.9881 290.025 17.4887 290.492 17.0821C290.96 16.6809 291.648 16.3932 292.465 16.3501L292.674 16.345C293.501 16.3432 294.271 16.605 294.833 17.015C295.398 17.425 295.741 17.9605 295.812 18.529L296.72 18.4308L297.632 18.3344C297.497 17.2355 296.847 16.2967 295.953 15.6508C295.057 15.0031 293.905 14.6244 292.674 14.6226L292.364 14.6312C291.149 14.6932 290.058 15.1238 289.255 15.8128C288.454 16.4965 287.94 17.4645 287.942 18.5272L287.966 18.9356C288.1 20.0327 288.753 20.9714 289.645 21.6174C290.542 22.2667 291.693 22.6456 292.927 22.6456L293.233 22.6387C294.451 22.575 295.542 22.1444 296.344 21.4554C297.146 20.7717 297.658 19.8036 297.658 18.7426L297.632 18.3344L296.72 18.4308Z" fill="#DFDFDF"/>
<path fill-rule="evenodd" clip-rule="evenodd" d="M663.986 515.92L663.178 516.331L676.624 539.655L676.656 539.708C677.206 540.516 677.373 541.089 677.372 541.484C677.368 542.001 677.121 542.404 676.503 542.954C670.764 547.95 653.4 563.092 627.997 568.982C627.416 569.117 626.944 569.17 626.564 569.17C625.771 569.16 625.417 568.974 625.083 568.697C624.755 568.414 624.481 567.961 624.181 567.432L611.375 545.188C611.215 544.91 611.142 544.619 611.139 544.31C611.128 543.391 611.874 542.3 613.187 541.804C620.203 539.137 629.079 534.622 637.882 529.689C646.986 524.583 654.744 519.464 659.854 515.258C660.393 514.82 660.801 514.703 661.133 514.701C661.458 514.703 661.788 514.82 662.153 515.095C662.514 515.371 662.878 515.803 663.178 516.331L663.986 515.92L664.791 515.511C664.4 514.834 663.917 514.226 663.311 513.761C662.714 513.3 661.963 512.978 661.133 512.978C660.277 512.976 659.415 513.324 658.646 513.963C653.67 518.061 645.975 523.147 636.941 528.209C628.188 533.117 619.354 537.605 612.501 540.207C610.57 540.943 609.317 542.571 609.307 544.31C609.307 544.888 609.453 545.472 609.762 546.008L622.569 568.251C622.867 568.764 623.209 569.404 623.834 569.958C624.456 570.516 625.396 570.903 626.564 570.893C627.125 570.893 627.741 570.816 628.438 570.653C654.353 564.64 671.963 549.244 677.75 544.217C678.528 543.548 679.212 542.649 679.206 541.484C679.203 540.634 678.862 539.755 678.205 538.781L677.43 539.245L678.235 538.835L664.791 515.511L663.986 515.92Z" fill="#DFDFDF"/>
<path fill-rule="evenodd" clip-rule="evenodd" d="M658.707 523.312L657.804 523.16L653.969 543.25L632.691 538.161L632.464 538.994L632.66 539.836C634.342 539.48 636.7 538.328 639.475 536.783C647.741 532.165 659.244 524.007 659.259 523.998L658.707 523.312L658.155 522.624C658.152 522.626 656.882 523.525 654.879 524.899C651.876 526.961 647.23 530.082 642.81 532.791C640.601 534.144 638.446 535.394 636.593 536.353C634.749 537.313 633.166 537.977 632.269 538.154C631.853 538.238 631.556 538.578 631.549 538.98C631.541 539.381 631.826 539.731 632.238 539.829L654.472 545.148C654.72 545.207 654.98 545.167 655.194 545.037C655.409 544.907 655.556 544.702 655.601 544.466L659.609 523.462C659.675 523.114 659.508 522.762 659.187 522.577C658.867 522.393 658.456 522.41 658.155 522.624L658.707 523.312Z" fill="#DFDFDF"/>
<path fill-rule="evenodd" clip-rule="evenodd" d="M642.001 541.814L636.776 554.604L625.621 553.652L620.403 545.89L632.889 539.759C633.338 539.538 633.511 539.017 633.278 538.596C633.043 538.173 632.489 538.009 632.04 538.23L618.672 544.796C618.446 544.906 618.278 545.105 618.213 545.336C618.145 545.568 618.186 545.816 618.322 546.019L624.313 554.932C624.464 555.159 624.721 555.306 625.005 555.33L637.301 556.378C637.707 556.411 638.092 556.188 638.239 555.828L643.712 542.432C643.893 541.987 643.656 541.49 643.185 541.319C642.712 541.148 642.182 541.37 642.001 541.814Z" fill="#DFDFDF"/>
<path fill-rule="evenodd" clip-rule="evenodd" d="M662.758 541.757L663.492 541.24C663.329 541.034 663.256 540.811 663.253 540.558C663.25 540.09 663.549 539.51 664.186 539.115C664.607 538.853 665.083 538.729 665.52 538.729C666.107 538.731 666.584 538.944 666.848 539.279C667.012 539.486 667.085 539.708 667.087 539.959C667.091 540.427 666.791 541.007 666.152 541.404C665.732 541.664 665.257 541.79 664.819 541.789C664.231 541.786 663.755 541.575 663.492 541.24L662.025 542.273C662.7 543.114 663.764 543.512 664.819 543.51C665.618 543.51 666.438 543.289 667.164 542.84C668.26 542.158 668.916 541.082 668.92 539.959C668.922 539.364 668.724 538.753 668.316 538.244C667.64 537.402 666.577 537.004 665.52 537.006C664.72 537.008 663.9 537.228 663.177 537.678C662.079 538.361 661.423 539.436 661.42 540.558C661.419 541.156 661.616 541.764 662.025 542.273L662.758 541.757Z" fill="#DFDFDF"/>
<path fill-rule="evenodd" clip-rule="evenodd" d="M598.534 117.732L653.161 157.011C654.358 157.873 656.074 157.644 656.972 156.503L665.219 146.002C666.078 144.907 665.864 143.368 664.733 142.517L610.876 102.034C609.673 101.129 607.911 101.355 607.006 102.527L597.987 114.233C597.129 115.346 597.372 116.897 598.534 117.732Z" fill="white"/>
<path fill-rule="evenodd" clip-rule="evenodd" d="M598.533 117.732L597.976 118.415L652.603 157.694C653.256 158.165 654.032 158.394 654.796 158.394C655.901 158.397 657 157.915 657.709 157.015L665.956 146.513C666.431 145.908 666.661 145.197 666.661 144.497C666.663 143.502 666.194 142.512 665.304 141.845L611.448 101.361C610.783 100.86 609.981 100.615 609.192 100.615C608.08 100.615 606.971 101.103 606.263 102.021L597.244 113.729C596.782 114.326 596.557 115.027 596.557 115.718C596.554 116.737 597.048 117.75 597.976 118.417L598.533 117.732L599.089 117.048C598.63 116.717 598.391 116.224 598.39 115.718C598.39 115.377 598.499 115.037 598.729 114.737L607.748 103.031C608.097 102.576 608.639 102.34 609.192 102.338C609.586 102.34 609.97 102.457 610.304 102.705L664.161 143.189C664.599 143.52 664.826 144.002 664.827 144.497C664.827 144.844 664.716 145.188 664.48 145.49L656.232 155.991C655.881 156.439 655.345 156.669 654.796 156.672C654.418 156.672 654.042 156.562 653.716 156.328L599.091 117.048L598.533 117.732Z" fill="#DFDFDF"/>
<path fill-rule="evenodd" clip-rule="evenodd" d="M602.576 115.981L615.822 124.714L623.641 115.948L610.388 105.565L602.576 115.981Z" fill="#FB847F"/>
<path fill-rule="evenodd" clip-rule="evenodd" d="M620.812 128.118L634.075 138.005L641.184 129.788L627.833 119.607L620.812 128.118Z" fill="#FE7C48"/>
<path fill-rule="evenodd" clip-rule="evenodd" d="M638.538 141.802L651.787 150.537L658.095 142.919L645.545 133.053L638.538 141.802Z" fill="#599FF4"/>
<path fill-rule="evenodd" clip-rule="evenodd" d="M707.53 62.8172L719.978 161.092C720.249 163.248 722.352 164.774 724.642 164.48L745.719 161.769C747.917 161.486 749.486 159.622 749.271 157.547L739.054 58.7816C738.826 56.5735 736.679 54.9941 734.344 55.3161L711.036 58.5181C708.819 58.8229 707.264 60.7297 707.53 62.8172Z" fill="white"/>
<path fill-rule="evenodd" clip-rule="evenodd" d="M707.531 62.8175L706.621 62.9191L719.067 161.194C719.376 163.608 721.555 165.377 724.076 165.377C724.304 165.377 724.535 165.364 724.765 165.333L745.844 162.621C748.365 162.296 750.209 160.273 750.209 157.927L750.184 157.465L739.969 58.6975C739.711 56.2344 737.507 54.4137 734.948 54.4137C734.705 54.4121 734.459 54.4293 734.212 54.4636L710.905 57.6656C708.399 58.0119 706.586 60.0289 706.586 62.3541C706.586 62.5401 706.596 62.7296 706.621 62.9208V62.9191L707.531 62.8175L708.441 62.7141L708.419 62.3541C708.419 60.878 709.572 59.5879 711.169 59.3709L734.477 56.1672L734.948 56.1344C736.569 56.1344 737.983 57.2954 738.144 58.8645L748.36 157.63L748.375 157.927C748.375 159.416 747.202 160.71 745.595 160.914L724.519 163.627L724.076 163.655C722.476 163.655 721.081 162.528 720.888 160.99L708.441 62.7158V62.7141L707.531 62.8175Z" fill="#DFDFDF"/>
<path fill-rule="evenodd" clip-rule="evenodd" d="M713.898 65.1151L717.842 88.1006L736.429 86.8019L734.409 62.0508L713.898 65.1151Z" fill="#FB847F"/>
<path fill-rule="evenodd" clip-rule="evenodd" d="M719.187 96.8789L721.803 121.116L738.997 119.672L736.628 95.0327L719.187 96.8789Z" fill="#69B051"/>
<path fill-rule="evenodd" clip-rule="evenodd" d="M722.129 129.775L726.075 152.762L741.712 151.133L739.836 127.66L722.129 129.775Z" fill="#FE7C48"/>
<path fill-rule="evenodd" clip-rule="evenodd" d="M680.358 83.7413L714.828 178.933C715.419 180.567 717.325 181.429 719.052 180.842L740.642 173.541C742.306 172.98 743.196 171.285 742.664 169.704L710.296 73.5721C709.729 71.8892 707.78 70.9954 706.019 71.6068L682.327 79.8503C680.656 80.4325 679.782 82.1583 680.358 83.7413Z" fill="white"/>
<path fill-rule="evenodd" clip-rule="evenodd" d="M680.358 83.7417L679.489 84.019L713.961 179.211C714.557 180.856 716.192 181.889 717.94 181.889C718.412 181.889 718.894 181.812 719.362 181.654L740.955 174.351C742.663 173.773 743.736 172.26 743.736 170.636C743.736 170.241 743.672 169.839 743.539 169.446L711.168 73.3124C710.598 71.6211 708.94 70.5514 707.161 70.5532C706.675 70.5532 706.18 70.6324 705.701 70.7994L682.008 79.0429C680.317 79.6338 679.263 81.1373 679.263 82.7462C679.263 83.1682 679.337 83.6005 679.489 84.0207V84.019L680.358 83.7417L681.225 83.4626C681.138 83.2233 681.097 82.9838 681.097 82.7462C681.099 81.8402 681.69 80.9894 682.645 80.6586L706.338 72.415C706.613 72.3204 706.888 72.2756 707.161 72.2756C708.162 72.2756 709.102 72.8784 709.421 73.831L741.79 169.965C741.866 170.188 741.902 170.413 741.902 170.636C741.901 171.55 741.298 172.407 740.333 172.73L718.743 180.033C718.475 180.123 718.205 180.167 717.94 180.167C716.956 180.164 716.031 179.584 715.698 178.656L681.225 83.4644V83.4626L680.358 83.7417Z" fill="#DFDFDF"/>
<path fill-rule="evenodd" clip-rule="evenodd" d="M687.356 85.4754L696.304 107.19L714.198 102.287L706.74 78.4722L687.356 85.4754Z" fill="#599FF4"/>
<path fill-rule="evenodd" clip-rule="evenodd" d="M699.563 115.513L707.486 138.709L723.985 133.938L716.215 110.299L699.563 115.513Z" fill="#F9A183"/>
<path fill-rule="evenodd" clip-rule="evenodd" d="M709.724 147.114L718.671 168.827L733.607 164.178L726.576 141.584L709.724 147.114Z" fill="#FE7C48"/>
<path fill-rule="evenodd" clip-rule="evenodd" d="M178.285 129.662L175.538 126.834L166.444 134.637L169.192 137.463C170.35 138.655 172.318 138.739 173.587 137.65L178.086 133.79C179.354 132.702 179.444 130.853 178.285 129.662Z" fill="#69B051"/>
<path fill-rule="evenodd" clip-rule="evenodd" d="M162.429 111.374L161.752 111.955L174.698 125.271C174.854 125.431 174.927 125.626 174.927 125.827C174.927 126.054 174.834 126.273 174.642 126.438L165.696 134.113C165.525 134.261 165.316 134.329 165.104 134.33C164.861 134.329 164.629 134.241 164.453 134.06L151.507 120.746C151.351 120.585 151.277 120.391 151.277 120.19C151.277 119.962 151.371 119.744 151.563 119.578L160.509 111.902C160.679 111.757 160.887 111.687 161.101 111.685C161.343 111.687 161.576 111.776 161.752 111.955L162.429 111.374L163.105 110.792C162.571 110.245 161.834 109.962 161.101 109.964C160.451 109.964 159.79 110.186 159.271 110.63L150.326 118.306C149.743 118.808 149.442 119.501 149.444 120.19C149.442 120.801 149.68 121.421 150.154 121.909L163.099 135.222C163.631 135.77 164.371 136.053 165.104 136.053C165.753 136.053 166.414 135.83 166.931 135.386L175.879 127.709C176.461 127.209 176.763 126.515 176.76 125.827C176.763 125.215 176.526 124.594 176.05 124.108L163.106 110.794L162.429 111.374Z" fill="#DFDFDF"/>
<path fill-rule="evenodd" clip-rule="evenodd" d="M121.039 195.781H137.303V181.829H121.039V195.781Z" fill="#FB847F"/>
<path fill-rule="evenodd" clip-rule="evenodd" d="M120.121 172.852V180.968H111.311C110.802 180.968 110.394 181.354 110.394 181.83C110.394 182.304 110.802 182.691 111.311 182.691H121.038C121.281 182.691 121.517 182.599 121.688 182.439C121.858 182.28 121.955 182.058 121.955 181.83V172.852C121.955 172.377 121.545 171.991 121.038 171.991C120.532 171.991 120.121 172.377 120.121 172.852Z" fill="#DFDFDF"/>
<path fill-rule="evenodd" clip-rule="evenodd" d="M656.854 38.2336H673.121V24.2803H656.854V38.2336Z" fill="#FE7C48"/>
<path fill-rule="evenodd" clip-rule="evenodd" d="M655.937 15.3022V23.4181H647.128C646.62 23.4181 646.212 23.804 646.212 24.2794C646.212 24.7565 646.62 25.1406 647.128 25.1406H656.855C657.097 25.1406 657.333 25.0492 657.503 24.8891C657.674 24.7289 657.771 24.5067 657.771 24.2794V15.3022C657.771 14.8268 657.36 14.4409 656.855 14.4409C656.348 14.4409 655.937 14.8268 655.937 15.3022Z" fill="#DFDFDF"/>
<path fill-rule="evenodd" clip-rule="evenodd" d="M217.023 109.72C186.305 97.7586 156.852 92.1436 131.098 92.1436C104.679 92.1436 82.1355 98.0517 66.1425 109.149C50.1442 120.239 40.7607 136.578 40.7735 157.124C40.7809 181.698 54.0896 212.236 85.0599 247.429C116.036 282.624 164.706 322.491 235.596 365.684C260.888 381.074 299.31 386.393 299.368 386.413C299.869 386.482 300.334 386.157 300.409 385.687C300.483 385.216 300.138 384.778 299.637 384.708C299.634 384.708 299.049 384.625 297.958 384.451C290.325 383.236 258.258 377.451 236.593 364.24C165.813 321.115 117.28 281.338 86.4715 246.332C55.6572 211.325 42.5996 181.1 42.6069 157.124C42.6197 137.074 51.664 121.355 67.2315 110.534C82.8028 99.72 104.964 93.8642 131.098 93.8642C156.569 93.8642 185.799 99.426 216.322 111.313C216.789 111.495 217.325 111.286 217.519 110.847C217.713 110.408 217.491 109.903 217.023 109.72Z" fill="#DFDFDF"/>
<path fill-rule="evenodd" clip-rule="evenodd" d="M66.4063 114.933C66.4063 117.427 64.2538 119.45 61.5991 119.45C58.9443 119.45 56.79 117.427 56.79 114.933C56.79 112.439 58.9443 110.415 61.5991 110.415C64.2538 110.415 66.4063 112.439 66.4063 114.933Z" fill="#DFDFDF"/>
<path fill-rule="evenodd" clip-rule="evenodd" d="M31.003 90.142L31.6391 90.762L36.4042 86.4646L47.5973 92.481L52.9546 108.004L36.5912 101.57L31.8609 89.8371L31.003 90.142L30.1466 90.4467L35.0163 102.528C35.106 102.748 35.2876 102.925 35.5205 103.017L54.0876 110.316C54.4194 110.448 54.7971 110.384 55.0629 110.156C55.327 109.927 55.4241 109.578 55.3141 109.257L49.2326 91.6335C49.163 91.4303 49.0126 91.2563 48.8165 91.1513L36.7195 84.6492C36.3675 84.4597 35.9238 84.5096 35.6305 84.7749L30.3686 89.5202C30.1028 89.7595 30.0165 90.123 30.1466 90.4467L31.003 90.142Z" fill="#DFDFDF"/>
<path fill-rule="evenodd" clip-rule="evenodd" d="M36.2647 85.3966L35.6303 84.7747L31.0815 88.8757L29.3049 86.8503L33.0727 83.4572L35.5954 85.9855L36.2647 85.3966L36.9338 84.8074L33.7767 81.6434C33.6098 81.4763 33.3769 81.3782 33.1332 81.3713C32.8874 81.3661 32.651 81.4523 32.4731 81.6107L27.4221 86.1596C27.0754 86.4697 27.0442 86.9812 27.3487 87.3291L30.2949 90.6895C30.4582 90.8737 30.6947 90.9875 30.9495 91.0013C31.2044 91.0151 31.4537 90.929 31.6389 90.7619L36.899 86.0184C37.2602 85.6911 37.2748 85.1503 36.9338 84.8074L36.2647 85.3966Z" fill="#DFDFDF"/>
<path fill-rule="evenodd" clip-rule="evenodd" d="M55.1198 108.942L43.045 96.4802C42.7039 96.129 42.1246 96.1033 41.7506 96.424C41.3766 96.7419 41.3491 97.2882 41.6901 97.6394L53.7631 110.101C54.1042 110.453 54.6835 110.479 55.0593 110.158C55.4333 109.839 55.4608 109.294 55.1198 108.942Z" fill="#DFDFDF"/>
<path fill-rule="evenodd" clip-rule="evenodd" d="M83.6665 425.726L96.7736 489.167C97.0601 490.558 98.5067 491.459 99.9818 491.164L113.571 488.453C114.989 488.171 115.914 486.885 115.669 485.544L103.992 421.68C103.731 420.254 102.252 419.322 100.749 419.636L85.731 422.766C84.3046 423.065 83.3897 424.377 83.6665 425.726Z" fill="white"/>
<path fill-rule="evenodd" clip-rule="evenodd" d="M83.6664 425.726L82.768 425.89L95.8731 489.331C96.211 490.957 97.7213 492.08 99.4192 492.08C99.6685 492.08 99.9198 492.056 100.171 492.006L113.762 489.295C115.456 488.956 116.626 487.553 116.626 485.976C116.626 485.785 116.608 485.592 116.573 485.398L104.895 421.533C104.59 419.873 103.058 418.713 101.335 418.713C101.075 418.713 100.812 418.74 100.549 418.795L85.5327 421.927C83.8516 422.279 82.7002 423.676 82.7002 425.242C82.7002 425.456 82.7222 425.673 82.768 425.89L83.6664 425.726L84.5666 425.562L84.5336 425.242C84.5336 424.474 85.1019 423.778 85.9307 423.607L100.947 420.476L101.335 420.435C102.178 420.435 102.941 421.008 103.09 421.827L114.766 485.69L114.792 485.976C114.792 486.749 114.215 487.445 113.381 487.61L99.7913 490.322L99.4192 490.358C98.5883 490.358 97.8346 489.803 97.6737 489.003L84.5666 425.56L83.6664 425.726Z" fill="#DFDFDF"/>
<path fill-rule="evenodd" clip-rule="evenodd" d="M87.9302 426.934L91.6684 441.729L103.706 440.046L101.133 424.019L87.9302 426.934Z" fill="#FB847F"/>
<path fill-rule="evenodd" clip-rule="evenodd" d="M92.9912 447.386L95.9282 463.052L107.052 461.338L104.258 445.4L92.9912 447.386Z" fill="#FE7C48"/>
<path fill-rule="evenodd" clip-rule="evenodd" d="M96.5811 468.674L100.319 483.468L110.422 481.706L108.007 466.501L96.5811 468.674Z" fill="#599FF4"/>
<path fill-rule="evenodd" clip-rule="evenodd" d="M458.941 584.726L459.178 585.558L513.743 571.837L515.243 575.839L461.087 589.045L459.828 584.509L458.941 584.726L458.054 584.945L459.544 590.314C459.671 590.773 460.171 591.049 460.661 590.929L516.67 577.271C516.918 577.211 517.128 577.054 517.249 576.842C517.369 576.63 517.388 576.377 517.303 576.152L515.192 570.512C515.033 570.089 514.552 569.851 514.091 569.966L458.705 583.895C458.217 584.017 457.927 584.488 458.054 584.945L458.941 584.726Z" fill="#DFDFDF"/>
<path fill-rule="evenodd" clip-rule="evenodd" d="M450.382 577.712L451.979 582.436C452.134 582.889 452.648 583.14 453.131 582.994C453.614 582.852 453.881 582.366 453.727 581.913L452.128 577.19C451.975 576.737 451.459 576.486 450.977 576.63C450.495 576.775 450.227 577.259 450.382 577.712Z" fill="#DFDFDF"/>
<path fill-rule="evenodd" clip-rule="evenodd" d="M449.994 581.346L454.668 579.839C455.145 579.684 455.4 579.194 455.237 578.743C455.072 578.294 454.551 578.054 454.071 578.209L449.4 579.717C448.919 579.87 448.664 580.361 448.829 580.811C448.994 581.26 449.516 581.5 449.994 581.346Z" fill="#DFDFDF"/>
<path fill-rule="evenodd" clip-rule="evenodd" d="M447.694 595.753L450.708 604.662C450.861 605.117 451.376 605.367 451.86 605.224C452.342 605.079 452.608 604.596 452.457 604.143L449.443 595.231C449.29 594.777 448.773 594.527 448.29 594.67C447.808 594.814 447.542 595.299 447.694 595.753Z" fill="#DFDFDF"/>
<path fill-rule="evenodd" clip-rule="evenodd" d="M446.278 601.96L454.6 599.477C455.082 599.333 455.35 598.85 455.196 598.396C455.041 597.944 454.527 597.692 454.044 597.837L445.723 600.32C445.241 600.465 444.972 600.948 445.127 601.401C445.279 601.853 445.796 602.106 446.278 601.96Z" fill="#DFDFDF"/>
<path fill-rule="evenodd" clip-rule="evenodd" d="M435.037 581.04L438.967 592.841C439.119 593.295 439.634 593.547 440.116 593.406C440.599 593.263 440.869 592.781 440.717 592.326L436.787 580.525C436.636 580.071 436.123 579.82 435.638 579.96C435.156 580.102 434.886 580.585 435.037 581.04Z" fill="#DFDFDF"/>
<path fill-rule="evenodd" clip-rule="evenodd" d="M432.284 588.952L443.947 585.455C444.43 585.311 444.695 584.826 444.541 584.374C444.387 583.919 443.871 583.67 443.39 583.815L431.727 587.311C431.243 587.455 430.978 587.941 431.132 588.393C431.286 588.847 431.801 589.096 432.284 588.952Z" fill="#DFDFDF"/>
<path fill-rule="evenodd" clip-rule="evenodd" d="M55.1077 19.4967L55.3606 18.9696L20.8318 4.32561L21.8621 1.65069L55.9455 16.3981L54.5484 19.2555L55.1077 19.4967L55.6668 19.7378L57.3188 16.3567C57.4618 16.0656 57.3261 15.7246 57.0181 15.5902L21.7687 0.338202L21.2737 0.32959L20.9326 0.667184L19.4806 4.43584C19.3724 4.72004 19.5136 5.03523 19.8069 5.15926L54.8547 20.0221C55.1626 20.1529 55.5257 20.0254 55.6668 19.7378L55.1077 19.4967Z" fill="#DFDFDF"/>
<path fill-rule="evenodd" clip-rule="evenodd" d="M56.3792 26.5505L57.6846 23.4611C57.8093 23.1649 57.6552 22.829 57.3399 22.7119C57.0245 22.5932 56.667 22.7378 56.5423 23.0358L55.2352 26.1251C55.1105 26.4214 55.2644 26.7571 55.5799 26.8743C55.8952 26.9913 56.2526 26.8467 56.3792 26.5505Z" fill="#DFDFDF"/>
<path fill-rule="evenodd" clip-rule="evenodd" d="M58.2237 24.8211L55.1161 23.7391C54.7971 23.6289 54.4432 23.7805 54.3259 24.0802C54.2085 24.38 54.3698 24.7126 54.6889 24.8229L57.7964 25.9048C58.1136 26.015 58.4675 25.8633 58.5867 25.5637C58.704 25.2639 58.5409 24.9313 58.2237 24.8211Z" fill="#DFDFDF"/>
<path fill-rule="evenodd" clip-rule="evenodd" d="M65.9282 18.2594L68.3923 12.4291C68.517 12.1327 68.363 11.7969 68.0476 11.6798C67.7323 11.5627 67.3747 11.7073 67.2501 12.0036L64.7859 17.8323C64.6613 18.1285 64.8152 18.4645 65.1305 18.5832C65.4459 18.7004 65.8035 18.5557 65.9282 18.2594Z" fill="#DFDFDF"/>
<path fill-rule="evenodd" clip-rule="evenodd" d="M69.4693 15.5987L64.0277 13.5695C63.7124 13.4505 63.3549 13.5952 63.2283 13.8915C63.1036 14.1895 63.2577 14.5254 63.573 14.6426L69.0146 16.6735C69.3318 16.7906 69.6876 16.6459 69.814 16.3497C69.9387 16.0533 69.7847 15.7175 69.4693 15.5987Z" fill="#DFDFDF"/>
<path fill-rule="evenodd" clip-rule="evenodd" d="M65.851 30.9457L69.1438 23.2498C69.2704 22.9554 69.1182 22.6177 68.8029 22.4989C68.4875 22.38 68.13 22.523 68.0035 22.8193L64.7088 30.5151C64.5824 30.8114 64.7363 31.1471 65.0499 31.2661C65.3652 31.385 65.7245 31.242 65.851 30.9457Z" fill="#DFDFDF"/>
<path fill-rule="evenodd" clip-rule="evenodd" d="M70.8559 27.9363L63.2197 25.1002C62.9043 24.9831 62.5468 25.1277 62.4221 25.4239C62.2974 25.7201 62.4515 26.0559 62.7687 26.1729L70.405 29.0093C70.7203 29.1263 71.0777 28.9816 71.2024 28.6855C71.3271 28.3893 71.1731 28.0535 70.8559 27.9363Z" fill="#DFDFDF"/>
<path fill-rule="evenodd" clip-rule="evenodd" d="M186.085 297.569C161.38 280.857 137.107 254.891 147.753 228.217C147.753 228.217 164.788 217.548 191.762 230.884C218.735 244.222 218.735 244.222 218.735 244.222L186.085 297.569Z" fill="#FE7C48"/>
<path fill-rule="evenodd" clip-rule="evenodd" d="M174.884 408.884C163.768 403.947 116.306 380.736 107.864 341.07C100.566 306.798 128.461 260.597 142.438 240.185C141.539 267.281 170.504 290.211 184.478 299.663C198.631 309.237 209.042 313.92 223.404 318.986L174.884 408.884Z" fill="white"/>
<path fill-rule="evenodd" clip-rule="evenodd" d="M147.753 228.216C147.753 228.216 95.2296 294.9 105.167 341.577C115.104 388.255 176.148 412.261 176.148 412.261L227.253 317.572C211.282 312.07 200.906 307.592 186.084 297.568C161.379 280.857 137.106 254.891 147.753 228.216ZM140.313 248.244C143.343 266.253 157.973 284.92 182.871 301.761C196.315 310.853 206.423 315.604 219.568 320.379L173.65 405.457C159.661 398.917 118.264 376.761 110.559 340.563C104.153 310.474 125.871 270.562 140.313 248.244Z" fill="#FE7C48"/>
<path fill-rule="evenodd" clip-rule="evenodd" d="M133.029 267.058C133.038 267.125 133.816 273.912 138.208 282.527C142.595 291.137 150.617 301.589 165.078 308.862C165.523 309.089 166.079 308.93 166.319 308.511C166.557 308.091 166.389 307.569 165.943 307.345C151.889 300.271 144.129 290.152 139.86 281.783C137.726 277.599 136.472 273.856 135.753 271.165C135.393 269.822 135.166 268.74 135.031 268C134.963 267.63 134.917 267.343 134.89 267.152C134.863 266.962 134.852 266.875 134.852 266.875C134.799 266.401 134.348 266.059 133.843 266.11C133.339 266.16 132.975 266.586 133.029 267.058Z" fill="#1F2A37"/>
<path fill-rule="evenodd" clip-rule="evenodd" d="M180.353 318.431L208.866 332.781C209.312 333.006 209.868 332.848 210.107 332.429C210.345 332.01 210.178 331.487 209.733 331.264L181.218 316.913C180.772 316.688 180.217 316.845 179.977 317.265C179.74 317.685 179.907 318.206 180.353 318.431Z" fill="#1F2A37"/>
<path fill-rule="evenodd" clip-rule="evenodd" d="M137.179 305.589C137.233 305.707 146.538 325.042 176.335 337.592C176.799 337.786 177.341 337.592 177.548 337.158C177.755 336.724 177.548 336.213 177.086 336.021C162.447 329.855 152.883 322.043 146.974 315.786C144.019 312.657 141.981 309.914 140.686 307.962C140.036 306.987 139.574 306.209 139.275 305.679C139.127 305.413 139.019 305.21 138.947 305.075L138.872 304.926L138.85 304.881C138.643 304.448 138.101 304.254 137.637 304.451C137.176 304.645 136.971 305.155 137.179 305.589Z" fill="#1F2A37"/>
<path fill-rule="evenodd" clip-rule="evenodd" d="M113.677 308.146C113.681 308.194 113.937 313.278 116.014 319.255C118.088 325.22 121.996 332.147 129.457 335.665C129.909 335.877 130.461 335.704 130.688 335.279C130.914 334.853 130.73 334.337 130.278 334.122C123.483 330.943 119.753 324.476 117.756 318.721C116.757 315.85 116.195 313.172 115.881 311.222C115.725 310.245 115.632 309.449 115.577 308.902C115.551 308.628 115.532 308.416 115.522 308.273L115.508 308.064C115.485 307.59 115.056 307.221 114.55 307.245C114.044 307.267 113.654 307.672 113.677 308.146Z" fill="#1F2A37"/>
<path fill-rule="evenodd" clip-rule="evenodd" d="M146.267 238.183C146.266 238.211 146.23 238.566 146.23 239.225C146.217 244.414 148.451 268.372 185.488 298.22C185.873 298.529 186.45 298.49 186.78 298.127C187.11 297.767 187.066 297.222 186.681 296.913C150 267.319 148.076 243.955 148.063 239.225C148.063 238.925 148.071 238.698 148.078 238.552L148.09 238.39L148.093 238.349C148.141 237.875 147.772 237.454 147.268 237.41C146.764 237.364 146.316 237.71 146.267 238.183Z" fill="#1F2A37"/>
<path fill-rule="evenodd" clip-rule="evenodd" d="M162.525 243.909L162.547 243.907C162.608 243.906 162.78 243.896 163.063 243.896C165.693 243.899 177.725 244.571 194.499 256.179C194.906 256.462 195.48 256.381 195.78 255.996C196.08 255.614 195.993 255.075 195.585 254.792C178.502 242.964 166.031 242.171 163.063 242.175C162.639 242.175 162.408 242.189 162.386 242.192C161.88 242.228 161.502 242.643 161.54 243.116C161.581 243.59 162.022 243.945 162.527 243.909" fill="#1F2A37"/>
<path fill-rule="evenodd" clip-rule="evenodd" d="M99.2849 325.372C99.2154 326.422 99.1621 327.693 99.1621 329.159C99.1602 337.492 100.872 352.116 110.879 368.082C120.883 384.048 139.174 401.322 172.181 414.977C172.646 415.169 173.186 414.973 173.39 414.536C173.595 414.101 173.384 413.593 172.921 413.401C140.204 399.86 122.262 382.843 112.459 367.208C102.659 351.57 100.995 337.275 100.995 329.159C100.995 327.733 101.046 326.499 101.115 325.48C101.145 325.006 100.763 324.597 100.257 324.566C99.7522 324.537 99.3163 324.898 99.2849 325.372Z" fill="#DFDFDF"/>
<path fill-rule="evenodd" clip-rule="evenodd" d="M556.778 299.624L526.449 356.725C526.449 356.725 547.02 363.838 530.938 385.99C530.938 385.99 568.959 400.803 593.837 362.33C618.714 323.857 556.778 299.624 556.778 299.624Z" fill="#69B051"/>
<path fill-rule="evenodd" clip-rule="evenodd" d="M487.364 474.132C472.017 474.132 455.82 468.245 439.19 456.625L495.927 368.331L529.671 388.292L529.885 388.376C530.199 388.499 537.71 391.375 548.313 391.377H548.315C556.84 391.377 567.597 389.506 578.077 382.541L536.605 449.195C536.51 449.324 518.654 474.13 487.368 474.132H487.364Z" fill="white"/>
<path fill-rule="evenodd" clip-rule="evenodd" d="M593.836 362.33C579.779 384.065 561.531 388.791 548.312 388.791C538.134 388.791 530.937 385.989 530.937 385.989L495.02 364.741L435.555 457.281C455.468 471.702 472.836 476.715 487.368 476.715C520.589 476.715 538.979 450.499 538.979 450.499L593.836 362.33ZM496.831 371.919L528.007 390.362L528.402 390.594L528.832 390.763C529.167 390.892 537.168 393.959 548.312 393.959C554.817 393.959 562.552 392.932 570.506 389.587L534.32 447.746C533.137 449.361 516.338 471.548 487.368 471.548C473.238 471.548 458.279 466.298 442.847 455.933L496.831 371.919Z" fill="#6CA958"/>
<path fill-rule="evenodd" clip-rule="evenodd" d="M526.143 357.539L526.25 357.574C526.82 357.779 529.585 358.852 532.146 360.977C534.713 363.114 537.057 366.223 537.06 370.654C537.061 374.449 535.324 379.327 530.215 385.459C529.905 385.834 529.974 386.374 530.372 386.668C530.771 386.96 531.347 386.896 531.659 386.522C536.925 380.199 538.892 374.958 538.893 370.654C538.897 365.271 535.8 361.539 532.793 359.235C529.779 356.916 526.813 355.935 526.754 355.914C526.276 355.755 525.753 355.989 525.584 356.439C525.416 356.888 525.666 357.38 526.143 357.539Z" fill="#DFDFDF"/>
<path fill-rule="evenodd" clip-rule="evenodd" d="M493.697 363.393C493.713 363.407 501.383 370.009 511.222 376.626C516.14 379.935 521.603 383.249 526.941 385.75C532.282 388.245 537.491 389.947 542.012 389.955L542.193 389.953C550.794 389.863 560.173 388.861 568.938 385.434C577.702 382.012 585.839 376.139 591.837 366.415C592.09 366.003 591.94 365.477 591.504 365.239C591.066 365 590.505 365.139 590.25 365.551C584.448 374.943 576.684 380.535 568.233 383.845C559.783 387.151 550.637 388.143 542.176 388.232L542.012 388.233C537.99 388.239 532.963 386.65 527.759 384.208C519.945 380.551 511.719 375.022 505.467 370.413C502.339 368.108 499.702 366.034 497.851 364.535C496.925 363.785 496.194 363.183 495.696 362.765C495.197 362.349 494.936 362.123 494.936 362.121C494.562 361.801 493.982 361.825 493.64 362.174C493.299 362.526 493.324 363.07 493.697 363.393Z" fill="#1F2A37"/>
<path fill-rule="evenodd" clip-rule="evenodd" d="M497.487 397.702C497.566 397.745 513.354 410.99 533.272 411.021C536.469 411.021 539.771 410.673 543.123 409.872C543.612 409.755 543.909 409.284 543.783 408.824C543.659 408.362 543.16 408.085 542.668 408.202C539.474 408.967 536.328 409.297 533.272 409.297C523.756 409.3 515.097 406.087 508.821 402.852C505.685 401.238 503.147 399.621 501.398 398.411C500.523 397.807 499.845 397.305 499.388 396.954C499.16 396.779 498.986 396.643 498.873 396.55L498.704 396.414C498.327 396.098 497.747 396.132 497.412 396.487C497.074 396.843 497.109 397.387 497.487 397.702Z" fill="#1F2A37"/>
<path fill-rule="evenodd" clip-rule="evenodd" d="M519.76 424.114C519.851 424.174 525.129 427.881 533.564 427.886C537.549 427.886 542.224 427.048 547.329 424.617C547.782 424.4 547.962 423.883 547.733 423.459C547.504 423.036 546.952 422.865 546.501 423.08C541.646 425.391 537.275 426.163 533.564 426.164C529.639 426.164 526.446 425.296 524.238 424.43C523.134 423.998 522.278 423.566 521.704 423.246C521.416 423.087 521.199 422.955 521.057 422.865L520.901 422.764L520.859 422.735C520.453 422.45 519.879 422.528 519.575 422.908C519.273 423.289 519.355 423.828 519.76 424.114Z" fill="#1F2A37"/>
<path fill-rule="evenodd" clip-rule="evenodd" d="M468.616 434.906C468.701 434.978 483.361 448.674 508.062 448.684C516.203 448.684 525.419 447.189 535.521 443.232C535.99 443.051 536.211 442.547 536.016 442.108C535.82 441.669 535.285 441.459 534.817 441.643C524.928 445.515 515.963 446.959 508.062 446.961C496.084 446.961 486.539 443.631 479.978 440.3C476.7 438.637 474.172 436.972 472.469 435.729C471.616 435.109 470.971 434.591 470.541 434.232C470.327 434.053 470.166 433.914 470.062 433.822L469.909 433.685C469.55 433.349 468.97 433.351 468.613 433.688C468.257 434.026 468.257 434.57 468.616 434.906Z" fill="#1F2A37"/>
<path fill-rule="evenodd" clip-rule="evenodd" d="M482.665 411.665C482.674 411.671 485.297 413.434 488.747 415.48C492.207 417.53 496.471 419.862 499.874 421.029C500.348 421.193 500.874 420.963 501.048 420.516C501.221 420.068 500.978 419.574 500.501 419.412C497.36 418.34 493.128 416.043 489.728 414.025C488.024 413.014 486.522 412.073 485.448 411.384C484.373 410.696 483.73 410.265 483.73 410.265C483.319 409.987 482.746 410.077 482.453 410.466C482.157 410.85 482.252 411.39 482.665 411.665Z" fill="#1F2A37"/>
<path fill-rule="evenodd" clip-rule="evenodd" d="M561.702 317.016L561.75 317.033C562.356 317.227 568.085 319.199 573.967 324.546C579.849 329.903 585.907 338.603 587.247 352.434C587.294 352.907 587.742 353.256 588.246 353.214C588.75 353.171 589.119 352.752 589.075 352.278C587.66 337.577 580.981 328.31 574.65 322.779C568.314 317.243 562.352 315.404 562.27 315.378C561.79 315.231 561.273 315.477 561.115 315.93C560.957 316.381 561.219 316.867 561.702 317.016Z" fill="#1F2A37"/>
<path fill-rule="evenodd" clip-rule="evenodd" d="M572.964 352.473L572.99 352.511C573.289 352.96 575.984 357.262 575.978 363.301C575.967 368.748 573.848 375.63 565.688 382.662C565.313 382.984 565.288 383.529 565.629 383.879C565.972 384.229 566.551 384.254 566.926 383.932C575.429 376.633 577.825 369.181 577.812 363.301C577.806 356.34 574.554 351.619 574.504 351.538C574.23 351.139 573.663 351.024 573.236 351.282C572.812 351.541 572.689 352.073 572.964 352.473Z" fill="#1F2A37"/>
<path fill-rule="evenodd" clip-rule="evenodd" d="M437.124 462.302C437.203 462.343 460.657 481.287 489.049 481.317C505.652 481.334 523.916 474.723 539.76 454.157C540.057 453.772 539.965 453.235 539.554 452.955C539.146 452.676 538.572 452.763 538.275 453.146C522.681 473.329 505.132 479.577 489.049 479.594C475.294 479.597 462.59 474.956 453.336 470.293C448.71 467.963 444.945 465.632 442.344 463.886C441.043 463.015 440.033 462.287 439.349 461.781C439.008 461.527 438.747 461.33 438.573 461.195C438.401 461.061 438.318 460.996 438.318 460.993C437.933 460.685 437.356 460.727 437.025 461.088C436.695 461.451 436.741 461.992 437.126 462.302" fill="#DFDFDF"/>
<path fill-rule="evenodd" clip-rule="evenodd" d="M14.0437 282.659H27.7284C28.2344 282.659 28.6451 282.273 28.6451 281.799C28.6451 281.323 28.2344 280.938 27.7284 280.938H14.0437C13.5377 280.938 13.127 281.323 13.127 281.799C13.127 282.273 13.5377 282.659 14.0437 282.659Z" fill="#FB847F"/>
<path fill-rule="evenodd" clip-rule="evenodd" d="M776.293 128.044H789.977C790.484 128.044 790.894 127.66 790.894 127.184C790.894 126.707 790.484 126.323 789.977 126.323H776.293C775.787 126.323 775.376 126.707 775.376 127.184C775.376 127.66 775.787 128.044 776.293 128.044Z" fill="#FB847F"/>
<path fill-rule="evenodd" clip-rule="evenodd" d="M409.342 39.8447H423.025V38.1226H409.342V39.8447Z" fill="#FE7C48"/>
<path fill-rule="evenodd" clip-rule="evenodd" d="M802.254 194.706L815.723 196.979L816.047 195.282L802.579 193.01" fill="#FE7C48"/>
<path fill-rule="evenodd" clip-rule="evenodd" d="M264.907 515.476H278.59C279.097 515.476 279.507 515.091 279.507 514.615C279.507 514.141 279.097 513.754 278.59 513.754H264.907C264.402 513.754 263.991 514.141 263.991 514.615C263.991 515.091 264.402 515.476 264.907 515.476Z" fill="#599FF4"/>
<path fill-rule="evenodd" clip-rule="evenodd" d="M836.431 354.371C836.431 356.723 834.402 358.63 831.899 358.63C829.395 358.63 827.363 356.723 827.363 354.371C827.363 352.017 829.395 350.109 831.899 350.109C834.402 350.109 836.431 352.017 836.431 354.371Z" fill="#69B051"/>
<mask id="mask1_879_3138" style="mask-type:alpha" maskUnits="userSpaceOnUse" x="802" y="394" width="94" height="236">
<path d="M802.559 394.478H895.547V629.919H802.559V394.478Z" fill="white"/>
</mask>
<g mask="url(#mask1_879_3138)">
<path fill-rule="evenodd" clip-rule="evenodd" d="M881.068 616.761C878.537 616.01 877.132 613.471 877.934 611.09C878.735 608.714 881.436 607.396 883.969 608.147C886.499 608.903 887.902 611.441 887.102 613.817C886.301 616.197 883.599 617.516 881.068 616.761Z" fill="#DFDFDF"/>
<path fill-rule="evenodd" clip-rule="evenodd" d="M1158.43 458.586C1158.45 458.536 1162.07 448.382 1162.09 436.122C1162.09 426.945 1160.03 416.536 1152.75 408.378C1145.48 400.215 1133.02 394.468 1112.6 394.478C1092.53 394.481 1064.71 399.995 1026.2 414.208C951.018 441.959 895.143 482.726 858.047 521.163C839.499 540.382 825.645 559.018 816.415 575.171C807.191 591.334 802.569 604.98 802.559 614.395C802.559 617.583 803.092 620.303 804.218 622.475C805.337 624.648 807.091 626.265 809.39 627.118C814.738 629.113 820.534 629.919 826.424 629.919C839.713 629.916 853.515 625.825 864.024 621.753C874.532 617.677 881.738 613.607 881.764 613.591C882.199 613.347 882.338 612.818 882.078 612.41C881.817 612.003 881.255 611.871 880.82 612.116C880.82 612.116 880.714 612.176 880.501 612.293C878.906 613.168 871.441 617.155 861.341 620.914C851.246 624.676 838.507 628.199 826.424 628.196C820.711 628.198 815.149 627.413 810.067 625.518C808.203 624.818 806.833 623.574 805.867 621.722C804.904 619.873 804.39 617.403 804.393 614.395C804.38 605.494 808.882 591.985 818.032 575.986C845.471 527.943 914.527 457.272 1026.86 415.811C1065.25 401.641 1092.88 396.198 1112.6 396.201C1132.66 396.21 1144.47 401.79 1151.36 409.484C1158.24 417.187 1160.25 427.17 1160.25 436.122C1160.25 442.094 1159.36 447.587 1158.46 451.579C1158.02 453.576 1157.58 455.196 1157.23 456.315C1157.07 456.874 1156.94 457.308 1156.85 457.601C1156.74 457.894 1156.7 458.038 1156.7 458.038C1156.53 458.489 1156.79 458.977 1157.27 459.129C1157.74 459.28 1158.27 459.037 1158.43 458.586Z" fill="#DFDFDF"/>
</g>
</g>
</g>
</g>
<g filter="url(#filter0_d_879_3138)">
<rect x="859.5" y="4.99023" width="32" height="32" rx="16" fill="white" fill-opacity="0.5" shape-rendering="crispEdges"/>
<g clip-path="url(#clip4_879_3138)">
<g clip-path="url(#clip5_879_3138)">
<path d="M880.655 12.9902C882.251 12.9902 883.544 14.2836 883.544 15.8791V18.5458C883.544 18.914 883.245 19.2125 882.877 19.2125C882.509 19.2125 882.211 18.914 882.211 18.5458V15.8791C882.211 15.02 881.514 14.3236 880.655 14.3236H877.988C877.62 14.3236 877.322 14.0251 877.322 13.6569C877.322 13.2887 877.62 12.9902 877.988 12.9902H880.655Z" fill="#0360B9"/>
<path d="M870.433 12.9902C868.837 12.9902 867.544 14.2836 867.544 15.8791V18.5458C867.544 18.914 867.842 19.2125 868.211 19.2125C868.579 19.2125 868.877 18.914 868.877 18.5458V15.8791C868.877 15.02 869.574 14.3236 870.433 14.3236H873.1C873.468 14.3236 873.766 14.0251 873.766 13.6569C873.766 13.2887 873.468 12.9902 873.1 12.9902H870.433Z" fill="#0360B9"/>
<path d="M880.655 28.9903C882.251 28.9903 883.544 27.6968 883.544 26.1014V23.4347C883.544 23.0665 883.245 22.7681 882.877 22.7681C882.509 22.7681 882.211 23.0665 882.211 23.4347V26.1014C882.211 26.9605 881.514 27.6569 880.655 27.6569H877.988C877.62 27.6569 877.322 27.9554 877.322 28.3236C877.322 28.6918 877.62 28.9903 877.988 28.9903H880.655Z" fill="#0360B9"/>
<path d="M867.544 26.1014C867.544 27.6968 868.837 28.9903 870.433 28.9903H873.1C873.468 28.9903 873.766 28.6918 873.766 28.3236C873.766 27.9554 873.468 27.6569 873.1 27.6569H870.433C869.574 27.6569 868.877 26.9605 868.877 26.1014V23.4347C868.877 23.0665 868.579 22.7681 868.211 22.7681C867.842 22.7681 867.544 23.0665 867.544 23.4347V26.1014Z" fill="#0360B9"/>
<path d="M875.544 23.658C877.017 23.658 878.211 22.4642 878.211 20.9914C878.211 19.5186 877.017 18.3247 875.544 18.3247C874.071 18.3247 872.877 19.5186 872.877 20.9914C872.877 22.4642 874.071 23.658 875.544 23.658ZM875.544 22.3247C874.808 22.3247 874.211 21.7277 874.211 20.9914C874.211 20.255 874.808 19.658 875.544 19.658C876.28 19.658 876.877 20.255 876.877 20.9914C876.877 21.7277 876.28 22.3247 875.544 22.3247Z" fill="#0360B9"/>
<path d="M871.544 17.8784C872.035 17.8784 872.433 17.4804 872.433 16.9895C872.433 16.4986 872.035 16.1006 871.544 16.1006C871.053 16.1006 870.655 16.4986 870.655 16.9895C870.655 17.4804 871.053 17.8784 871.544 17.8784Z" fill="#0360B9"/>
</g>
</g>
</g>
</g>
</g>
<defs>
<filter id="filter0_d_879_3138" x="855.5" y="2.99023" width="40" height="40" filterUnits="userSpaceOnUse" color-interpolation-filters="sRGB">
<feFlood flood-opacity="0" result="BackgroundImageFix"/>
<feColorMatrix in="SourceAlpha" type="matrix" values="0 0 0 0 0 0 0 0 0 0 0 0 0 0 0 0 0 0 127 0" result="hardAlpha"/>
<feOffset dy="2"/>
<feGaussianBlur stdDeviation="2"/>
<feComposite in2="hardAlpha" operator="out"/>
<feColorMatrix type="matrix" values="0 0 0 0 0 0 0 0 0 0 0 0 0 0 0 0 0 0 0.1 0"/>
<feBlend mode="normal" in2="BackgroundImageFix" result="effect1_dropShadow_879_3138"/>
<feBlend mode="normal" in="SourceGraphic" in2="effect1_dropShadow_879_3138" result="shape"/>
</filter>
<clipPath id="clip0_879_3138">
<rect width="896.5" height="630.02" fill="white" transform="translate(0 -0.00976562)"/>
</clipPath>
<clipPath id="clip1_879_3138">
<rect width="896.5" height="630.02" fill="white" transform="translate(0 -0.00976562)"/>
</clipPath>
<clipPath id="clip2_879_3138">
<rect width="896.5" height="630.02" fill="white" transform="translate(0 -0.00976562)"/>
</clipPath>
<clipPath id="clip3_879_3138">
<rect width="896.5" height="630.024" fill="white" transform="translate(0 -0.012207)"/>
</clipPath>
<clipPath id="clip4_879_3138">
<rect width="17" height="16" fill="white" transform="translate(867 12.9902)"/>
</clipPath>
<clipPath id="clip5_879_3138">
<rect width="17" height="16" fill="white" transform="translate(867 12.9902)"/>
</clipPath>
</defs>
</svg>
